<?xml version="1.0" encoding="UTF-8" standalone="no"?>
<svg
   xmlns:dc="http://purl.org/dc/elements/1.1/"
   xmlns:cc="http://creativecommons.org/ns#"
   xmlns:rdf="http://www.w3.org/1999/02/22-rdf-syntax-ns#"
   xmlns:svg="http://www.w3.org/2000/svg"
   xmlns="http://www.w3.org/2000/svg"
   xmlns:sodipodi="http://sodipodi.sourceforge.net/DTD/sodipodi-0.dtd"
   xmlns:inkscape="http://www.inkscape.org/namespaces/inkscape"
   viewBox="0 0 128.57143 128.57143"
   width="90"
   height="90"
   version="1.1"
   id="svg15"
   sodipodi:docname="logo-square.svg"
   inkscape:version="0.92.2 2405546, 2018-03-11"
   inkscape:export-filename="/home/noirbizarre/Workspaces/wk/logo/logo-square-500.png"
   inkscape:export-xdpi="533.33002"
   inkscape:export-ydpi="533.33002">
  <title
     id="title4529">WK Logo</title>
  <metadata
     id="metadata19">
    <rdf:RDF>
      <cc:Work
         rdf:about="">
        <dc:format>image/svg+xml</dc:format>
        <dc:type
           rdf:resource="http://purl.org/dc/dcmitype/StillImage" />
        <dc:title>WK Logo</dc:title>
        <dc:publisher>
          <cc:Agent>
            <dc:title>Inkscape</dc:title>
          </cc:Agent>
        </dc:publisher>
        <dc:subject>
          <rdf:Bag>
            <rdf:li>wk</rdf:li>
          </rdf:Bag>
        </dc:subject>
        <dc:creator>
          <cc:Agent>
            <dc:title>API Hackers</dc:title>
          </cc:Agent>
        </dc:creator>
        <dc:rights>
          <cc:Agent>
            <dc:title>API Hackers</dc:title>
          </cc:Agent>
        </dc:rights>
        <cc:license
           rdf:resource="http://creativecommons.org/licenses/by-nd/4.0/" />
      </cc:Work>
      <cc:License
         rdf:about="http://creativecommons.org/licenses/by-nd/4.0/">
        <cc:permits
           rdf:resource="http://creativecommons.org/ns#Reproduction" />
        <cc:permits
           rdf:resource="http://creativecommons.org/ns#Distribution" />
        <cc:requires
           rdf:resource="http://creativecommons.org/ns#Notice" />
        <cc:requires
           rdf:resource="http://creativecommons.org/ns#Attribution" />
      </cc:License>
    </rdf:RDF>
  </metadata>
  <sodipodi:namedview
     pagecolor="#ffffff"
     bordercolor="#666666"
     borderopacity="1"
     objecttolerance="10"
     gridtolerance="10"
     guidetolerance="10"
     inkscape:pageopacity="0"
     inkscape:pageshadow="2"
     inkscape:window-width="3200"
     inkscape:window-height="1690"
     id="namedview17"
     showgrid="false"
     fit-margin-top="0"
     fit-margin-left="0"
     fit-margin-right="0"
     fit-margin-bottom="0"
     inkscape:zoom="6.123934"
     inkscape:cx="26.338875"
     inkscape:cy="-0.76304727"
     inkscape:window-x="0"
     inkscape:window-y="54"
     inkscape:window-maximized="1"
     inkscape:current-layer="svg15" />
  <defs
     id="SvgjsDefs1558" />
  <g
     id="SvgjsG1559"
     featurekey="root"
     style="fill:#eeeeee"
     transform="translate(0,1.0147531)" />
  <g
     id="SvgjsG1560"
     featurekey="container1"
     transform="matrix(2.2681442,0,0,2.2681442,8.0357388,0.51684082)"
     style="fill:#62a1c4">
    <title
       id="title4">Untitled-1</title>
    <path
       d="M 23.11,55.78 1.69,43.41 A 3.39,3.39 0 0 1 0,40.48 V 15.75 A 3.39,3.39 0 0 1 1.69,12.81 L 23.11,0.45 a 3.39,3.39 0 0 1 3.39,0 l 21.41,12.37 a 3.39,3.39 0 0 1 1.69,2.94 v 24.72 a 3.39,3.39 0 0 1 -1.69,2.94 L 26.5,55.78 a 3.39,3.39 0 0 1 -3.39,0 z"
       id="path6"
       inkscape:connector-curvature="0" />
  </g>
  <g
     id="SvgjsG1561"
     featurekey="symbol1"
     transform="matrix(0.83727024,0,0,0.83727024,22.838734,22.244283)"
     style="fill:#eeeeee">
    <path
       d="M 87.8,24 53.1,4 C 50.9,2.7 48.1,2.7 45.9,4 L 11.3,24 c -2.2,1.3 -3.6,3.7 -3.6,6.2 v 40 c 0,2.6 1.4,5 3.6,6.2 l 34.6,20 c 1.1,0.6 2.3,1 3.6,1 1.3,0 2.5,-0.3 3.6,-1 l 34.6,-20 c 2.2,-1.3 3.6,-3.7 3.6,-6.2 v -40 C 91.4,27.6 90,25.2 87.8,24 Z m -50.7,34.6 -11.1,-9 11.2,-8.1 2.5,3.4 -6.7,4.9 6.8,5.5 z m 9.8,6.3 -4,-1.4 9.7,-28.2 4,1.4 z M 62,58.6 59.4,55.3 66.2,49.8 59.5,44.9 62,41.5 73.2,49.6 Z"
       id="path9"
       inkscape:connector-curvature="0" />
  </g>
</svg>
