<?xml version="1.0" encoding="UTF-8" standalone="no"?>
<svg
   xmlns:dc="http://purl.org/dc/elements/1.1/"
   xmlns:cc="http://creativecommons.org/ns#"
   xmlns:rdf="http://www.w3.org/1999/02/22-rdf-syntax-ns#"
   xmlns:svg="http://www.w3.org/2000/svg"
   xmlns="http://www.w3.org/2000/svg"
   xmlns:sodipodi="http://sodipodi.sourceforge.net/DTD/sodipodi-0.dtd"
   xmlns:inkscape="http://www.inkscape.org/namespaces/inkscape"
   viewBox="0 0 113.4214 183.71431"
   width="79.394981"
   height="128.60001"
   version="1.1"
   id="svg15"
   sodipodi:docname="logo-text.svg"
   inkscape:version="0.92.2 2405546, 2018-03-11">
  <title
     id="title826">WK Logo</title>
  <metadata
     id="metadata19">
    <rdf:RDF>
      <cc:Work
         rdf:about="">
        <dc:format>image/svg+xml</dc:format>
        <dc:type
           rdf:resource="http://purl.org/dc/dcmitype/StillImage" />
        <dc:title>WK Logo</dc:title>
        <dc:creator>
          <cc:Agent>
            <dc:title>API Hackers</dc:title>
          </cc:Agent>
        </dc:creator>
        <dc:rights>
          <cc:Agent>
            <dc:title>API Hackers</dc:title>
          </cc:Agent>
        </dc:rights>
        <dc:publisher>
          <cc:Agent>
            <dc:title>Inkscape</dc:title>
          </cc:Agent>
        </dc:publisher>
        <dc:subject>
          <rdf:Bag>
            <rdf:li>wk</rdf:li>
          </rdf:Bag>
        </dc:subject>
        <cc:license
           rdf:resource="http://creativecommons.org/licenses/by-nd/4.0/" />
      </cc:Work>
      <cc:License
         rdf:about="http://creativecommons.org/licenses/by-nd/4.0/">
        <cc:permits
           rdf:resource="http://creativecommons.org/ns#Reproduction" />
        <cc:permits
           rdf:resource="http://creativecommons.org/ns#Distribution" />
        <cc:requires
           rdf:resource="http://creativecommons.org/ns#Notice" />
        <cc:requires
           rdf:resource="http://creativecommons.org/ns#Attribution" />
      </cc:License>
    </rdf:RDF>
  </metadata>
  <sodipodi:namedview
     pagecolor="#ffffff"
     bordercolor="#666666"
     borderopacity="1"
     objecttolerance="10"
     gridtolerance="10"
     guidetolerance="10"
     inkscape:pageopacity="0"
     inkscape:pageshadow="2"
     inkscape:window-width="3200"
     inkscape:window-height="1690"
     id="namedview17"
     showgrid="false"
     fit-margin-top="0"
     fit-margin-left="0"
     fit-margin-right="0"
     fit-margin-bottom="0"
     inkscape:zoom="6.123934"
     inkscape:cx="97.026994"
     inkscape:cy="39.641353"
     inkscape:window-x="0"
     inkscape:window-y="54"
     inkscape:window-maximized="1"
     inkscape:current-layer="svg15" />
  <defs
     id="SvgjsDefs1558" />
  <g
     id="SvgjsG1559"
     featurekey="root"
     style="fill:#eeeeee" />
  <g
     id="SvgjsG1560"
     featurekey="container1"
     transform="matrix(2.2681442,0,0,2.2681442,1.6684116e-5,0.00946697)"
     style="fill:#62a1c4">
    <title
       id="title4">Untitled-1</title>
    <path
       d="M 23.11,55.78 1.69,43.41 A 3.39,3.39 0 0 1 0,40.48 V 15.75 A 3.39,3.39 0 0 1 1.69,12.81 L 23.11,0.45 a 3.39,3.39 0 0 1 3.39,0 l 21.41,12.37 a 3.39,3.39 0 0 1 1.69,2.94 v 24.72 a 3.39,3.39 0 0 1 -1.69,2.94 L 26.5,55.78 a 3.39,3.39 0 0 1 -3.39,0 z"
       id="path6"
       inkscape:connector-curvature="0" />
  </g>
  <g
     id="SvgjsG1561"
     featurekey="symbol1"
     transform="matrix(0.83727024,0,0,0.83727024,14.553019,21.467257)"
     style="fill:#eeeeee">
    <path
       d="M 87.8,24 53.1,4 C 50.9,2.7 48.1,2.7 45.9,4 L 11.3,24 c -2.2,1.3 -3.6,3.7 -3.6,6.2 v 40 c 0,2.6 1.4,5 3.6,6.2 l 34.6,20 c 1.1,0.6 2.3,1 3.6,1 1.3,0 2.5,-0.3 3.6,-1 l 34.6,-20 c 2.2,-1.3 3.6,-3.7 3.6,-6.2 v -40 C 91.4,27.6 90,25.2 87.8,24 Z m -50.7,34.6 -11.1,-9 11.2,-8.1 2.5,3.4 -6.7,4.9 6.8,5.5 z m 9.8,6.3 -4,-1.4 9.7,-28.2 4,1.4 z M 62,58.6 59.4,55.3 66.2,49.8 59.5,44.9 62,41.5 73.2,49.6 Z"
       id="path9"
       inkscape:connector-curvature="0" />
  </g>
  <g
     id="SvgjsG1562"
     featurekey="text1"
     transform="matrix(4.4866061,0,0,4.4866061,-1.2562453,93.654051)"
     style="fill:#62a1c4">
    <path
       d="m 12.2,15.62 c 0.32,-1.3 0.82,-3.4 1.12,-4.58 h 2.54 l -1.3,5.02 c -0.54,1.98 -0.86,2.74 -1.48,3.92 -0.3,0.04 -0.84,0.08 -1.34,0.08 -0.48,0.02 -1.1,0.02 -1.42,-0.02 C 9.66,18.9 9.26,18.16 8.66,16.18 8.54,15.74 8.3,14.98 8.06,14.16 l -0.6,2.02 C 6.86,18.16 6.48,18.9 5.8,20.04 5.5,20.08 4.88,20.08 4.38,20.06 3.9,20.06 3.36,20.02 3.04,19.98 2.44,18.8 2.1,18.04 1.58,16.06 1.3,15.04 0.56,12.16 0.28,11.04 h 2.54 c 0.28,1.18 0.78,3.28 1.12,4.58 0.14,0.62 0.34,1.32 0.54,1.96 0.22,-0.64 0.46,-1.32 0.64,-1.94 l 1.36,-4.52 c 0,0 0.28,-0.14 1.52,-0.14 1.24,0 1.64,0.14 1.64,0.14 L 11,15.64 c 0.18,0.62 0.42,1.3 0.64,1.94 0.2,-0.64 0.4,-1.34 0.56,-1.96 z m 11.34,1.18 c 0.54,0.94 1.44,2.34 2.02,3.2 h -2.92 c -0.5,-0.72 -0.96,-1.5 -1.42,-2.34 l -0.7,-1.3 H 19.34 V 20 H 16.86 V 6.7 c 0.88,0.04 1.92,0.22 2.48,0.5 v 7 h 1.18 l 1.02,-1.52 c 0.32,-0.48 0.7,-1.06 1.04,-1.64 h 2.88 c -0.56,1.06 -1.32,2.32 -2.12,3.38 l -0.66,0.88 c 0.24,0.4 0.54,0.92 0.86,1.5 z"
       id="path12"
       inkscape:connector-curvature="0" />
  </g>
</svg>
